/* XPM */
static char *_e977d1c697b479bcf20f1d9578ac9fdtMwbKbQuB03LodKW[] = {
/* columns rows colors chars-per-pixel */
"50 50 7 1 ",
"  c white",
". c gray53",
"X c gray51",
"o c gray98",
"O c gray94",
"+ c #5F5F5F",
"@ c gray74",
/* pixels */
"+................................................+",
"X                                               oX",
".                                               oX",
".                                               oX",
".                                               oX",
".                                               oX",
".                                               oX",
".                                               oX",
".                                               oX",
".                                               oX",
".                                               oX",
".                                               oX",
".                                               oX",
".                                               oX",
".                                               oX",
".                                               oX",
".                                               oX",
".                                               oX",
".                                               oX",
".                                               oX",
".                                               oX",
".                                               oX",
".                                               oX",
".                                               oX",
".                                               oX",
".                                               oX",
".                                               oX",
".                                               oX",
".                                               oX",
".                                               oX",
".                                               oX",
".                                               oX",
".                                               oX",
".                                               oX",
".                                               oX",
".                                               oX",
".                                               oX",
".                                               oX",
".                                               oX",
".                                               oX",
".                                               oX",
".                                               oX",
".                                               oX",
".                                               oX",
".                                               oX",
".                                               oX",
".                                               oX",
".                                               oX",
"XOOOOOOOOOOOOOOOOOOOOOOOOOOOOOOOOOOOOOOOOOOOOOOOOX",
"+XXXXXXXXXXXXXXXXXXXXXXXXXXXXXXXXXXXXXXXXXXXXXXXX+"
};
